<svg width="17" height="17" viewBox="0 0 17 17" fill="none" xmlns="http://www.w3.org/2000/svg">
<rect width="16" height="16" transform="translate(0.450806 0.0720215)" fill="#181945"/>
<path d="M11.9414 7.77674L11.4423 5.76184C11.4054 5.61466 11.2911 5.49949 11.1439 5.4631L10.1128 5.20514L11.1439 4.94719C11.2894 4.9108 11.4038 4.7976 11.4414 4.65202L11.5806 4.1113C11.5894 4.0781 11.5934 4.03531 11.5934 4.00091C11.5934 3.92651 11.5734 3.85334 11.5342 3.78934C10.9783 2.86709 10.1432 2.33838 9.24257 2.33838C8.47548 2.33838 8.08994 2.60594 7.78038 2.82111C7.51003 3.00907 7.29565 3.15745 6.78534 3.15745C6.27503 3.15745 6.06065 3.00907 5.7903 2.82111C5.48075 2.60594 5.09521 2.33838 4.32812 2.33838C2.74754 2.33838 1.46135 3.99174 1.46135 6.02422C1.46135 10.1852 3.87459 14.2546 3.97698 14.4258C4.05056 14.5489 4.18415 14.6245 4.32812 14.6245C5.48315 14.6245 5.74629 13.3067 5.95827 12.2477C6.15984 11.2414 6.3366 10.5291 6.78534 10.5291C7.23409 10.5291 7.41084 11.2414 7.61242 12.2477C7.8244 13.3067 8.08754 14.6245 9.24257 14.6245C9.38654 14.6245 9.51934 14.5489 9.59371 14.4258C9.66729 14.3026 11.4102 11.369 11.9486 7.93873C11.9566 7.88475 11.9541 7.82955 11.9414 7.77674V7.77674Z" fill="url(#paint0_linear_784_339)"/>
<path d="M15.1299 4.80811L12.6925 4.21259L12.0973 1.82976C12.0517 1.6474 11.8878 1.51941 11.6998 1.51941C11.5118 1.51941 11.3478 1.6474 11.3022 1.83017L10.7087 4.21179L8.32429 4.80811C8.14194 4.85329 8.01395 5.01727 8.01395 5.20525C8.01395 5.39323 8.14194 5.55721 8.32429 5.60239L10.7063 6.19792L11.303 8.58356C11.3494 8.76471 11.5126 8.89109 11.6998 8.89109H11.7014C11.8886 8.8903 12.0517 8.76272 12.0973 8.58075L12.6925 6.19792L15.1299 5.60239C15.3123 5.55721 15.4402 5.39323 15.4402 5.20525C15.4402 5.01727 15.3123 4.85329 15.1299 4.80811V4.80811Z" fill="#7B55EC"/>
<defs>
<linearGradient id="paint0_linear_784_339" x1="6.70726" y1="14.6245" x2="6.70726" y2="2.33838" gradientUnits="userSpaceOnUse">
<stop stop-color="#ADDCFF"/>
<stop offset="0.5028" stop-color="#EAF6FF"/>
<stop offset="1" stop-color="#EAF6FF"/>
</linearGradient>
</defs>
</svg>
