<svg width="66" height="66" viewBox="0 0 66 66" fill="none" xmlns="http://www.w3.org/2000/svg">
<rect x="1" y="0.895508" width="64" height="64" rx="16" fill="#583FBC" fill-opacity="0.2" stroke="url(#paint0_linear_763_336)"/>
<rect x="9" y="8.89551" width="48" height="48" rx="16" fill="#583FBC"/>
<path fill-rule="evenodd" clip-rule="evenodd" d="M35.3558 22.9034C35.1328 22.8715 34.9087 22.9374 34.7304 23.0793C34.5472 23.2232 34.4326 23.4311 34.4077 23.6639C34.355 24.1346 34.6946 24.5603 35.1646 24.6133C38.4063 24.975 40.9259 27.5003 41.2904 30.752C41.3392 31.1877 41.7047 31.5165 42.1409 31.5165C42.1738 31.5165 42.2057 31.5145 42.2385 31.5105C42.4666 31.4855 42.6697 31.3726 42.8132 31.1927C42.9556 31.0129 43.0203 30.789 42.9944 30.5602C42.5403 26.503 39.4002 23.3541 35.3558 22.9034ZM35.4181 26.3854C34.942 26.2975 34.5048 26.6013 34.4142 27.066C34.3236 27.5307 34.6283 27.9843 35.0914 28.0753C36.4857 28.3471 37.5623 29.4264 37.8351 30.8254V30.8264C37.9128 31.2291 38.2674 31.5219 38.6757 31.5219C38.7305 31.5219 38.7852 31.5169 38.841 31.5069C39.3041 31.414 39.6088 30.9613 39.5182 30.4956C39.1109 28.4061 37.5025 26.7922 35.4181 26.3854ZM37.0001 35.9861C37.4515 35.7257 37.9615 35.4317 38.6047 35.5685C39.1873 35.6915 41.1731 37.3033 41.7169 37.862C42.0734 38.2277 42.2716 38.6055 42.3025 38.9832C42.3562 40.4652 40.3425 42.157 39.976 42.3679C39.489 42.7186 38.9224 42.8955 38.286 42.8955C37.6357 42.8955 36.9106 42.7106 36.1199 42.3419C31.8296 40.5511 25.2755 34.1265 23.5427 29.8695C22.8236 28.2845 22.8186 26.9774 23.5307 25.9951C23.8145 25.5344 25.4329 23.6088 26.8819 23.6697C27.2673 23.7027 27.6418 23.9006 28.0093 24.2603C28.565 24.8049 30.1365 26.7966 30.258 27.3812C30.3925 28.0307 30.0977 28.5474 29.8358 29.001C29.7799 29.0986 29.7046 29.2143 29.6222 29.3411C29.3092 29.8223 28.8926 30.4629 29.04 30.8718C30.0967 33.466 32.5376 35.7294 35.133 36.7927C35.5343 36.9386 36.1745 36.519 36.6542 36.2047C36.7791 36.1228 36.8932 36.048 36.9893 35.9922L37.0001 35.9861Z" fill="white"/>
<defs>
<linearGradient id="paint0_linear_763_336" x1="1" y1="0.895508" x2="65" y2="64.8955" gradientUnits="userSpaceOnUse">
<stop stop-color="#583FBC"/>
<stop offset="1" stop-color="#583FBC" stop-opacity="0"/>
</linearGradient>
</defs>
</svg>
