<svg width="149" height="33" viewBox="0 0 149 33" fill="none" xmlns="http://www.w3.org/2000/svg">
<path d="M42.0348 8.18209H47.8668C49.7708 8.18209 51.4428 8.56609 52.8828 9.33409C54.3228 10.0861 55.4348 11.1421 56.2188 12.5021C57.0028 13.8461 57.3948 15.3821 57.3948 17.1101C57.3948 18.8381 57.0028 20.3821 56.2188 21.7421C55.4348 23.0861 54.3148 24.1421 52.8588 24.9101C51.4188 25.6781 49.7548 26.0621 47.8668 26.0621H42.0348V8.18209ZM47.9628 22.8221C49.1148 22.8221 50.1228 22.5901 50.9868 22.1261C51.8508 21.6621 52.5148 20.9981 52.9788 20.1341C53.4428 19.2701 53.6748 18.2621 53.6748 17.1101C53.6748 15.9581 53.4428 14.9581 52.9788 14.1101C52.5148 13.2461 51.8508 12.5821 50.9868 12.1181C50.1228 11.6541 49.1148 11.4221 47.9628 11.4221H45.7548V22.8221H47.9628Z" fill="#181945"/>
<path d="M65.345 26.3501C64.001 26.3501 62.809 26.0461 61.769 25.4381C60.729 24.8301 59.921 24.0061 59.345 22.9661C58.785 21.9101 58.505 20.7501 58.505 19.4861C58.505 18.2061 58.793 17.0461 59.369 16.0061C59.945 14.9661 60.737 14.1501 61.745 13.5581C62.753 12.9661 63.873 12.6701 65.105 12.6701C66.449 12.6701 67.609 12.9501 68.585 13.5101C69.561 14.0701 70.305 14.8461 70.817 15.8381C71.329 16.8141 71.585 17.9101 71.585 19.1261C71.585 19.7181 71.529 20.1821 71.417 20.5181H62.249C62.361 21.3501 62.689 22.0141 63.233 22.5101C63.793 22.9901 64.513 23.2301 65.393 23.2301C66.017 23.2301 66.561 23.1021 67.025 22.8461C67.489 22.5901 67.849 22.2381 68.105 21.7901L70.985 23.1581C70.585 24.1181 69.873 24.8941 68.849 25.4861C67.841 26.0621 66.673 26.3501 65.345 26.3501ZM67.769 17.8781C67.689 17.1741 67.409 16.6141 66.929 16.1981C66.449 15.7661 65.841 15.5501 65.105 15.5501C64.385 15.5501 63.777 15.7501 63.281 16.1501C62.801 16.5501 62.481 17.1261 62.321 17.8781H67.769Z" fill="#181945"/>
<path d="M73.2249 12.9581H76.5849V14.5421C76.9209 13.9181 77.4009 13.4541 78.0249 13.1501C78.6649 12.8301 79.4089 12.6701 80.2569 12.6701C81.2329 12.6701 82.0969 12.8781 82.8489 13.2941C83.6009 13.7101 84.1849 14.2941 84.6009 15.0461C85.0169 15.7981 85.2249 16.6621 85.2249 17.6381V26.0621H81.6249V18.4061C81.6249 17.6541 81.4009 17.0541 80.9529 16.6061C80.5209 16.1421 79.9449 15.9101 79.2249 15.9101C78.5049 15.9101 77.9209 16.1421 77.4729 16.6061C77.0409 17.0541 76.8249 17.6541 76.8249 18.4061V26.0621H73.2249V12.9581Z" fill="#181945"/>
<path d="M93.4241 26.2061C91.8401 26.2061 90.6081 25.7821 89.7281 24.9341C88.8641 24.0701 88.4321 22.8701 88.4321 21.3341V16.0781H86.2241V12.9581H86.3441C87.0161 12.9581 87.5281 12.7901 87.8801 12.4541C88.2481 12.1181 88.4321 11.6141 88.4321 10.9421V9.98209H92.0321V12.9581H95.1041V16.0781H92.0321V21.0941C92.0321 21.7661 92.2161 22.2701 92.5841 22.6061C92.9521 22.9261 93.5121 23.0861 94.2641 23.0861C94.4881 23.0861 94.7681 23.0621 95.1041 23.0141V26.0861C94.5761 26.1661 94.0161 26.2061 93.4241 26.2061Z" fill="#181945"/>
<path d="M100.79 26.3501C99.3656 26.3501 98.2456 26.0141 97.4296 25.3421C96.6136 24.6701 96.2056 23.7421 96.2056 22.5581C96.2056 21.4381 96.5896 20.5261 97.3576 19.8221C98.1416 19.1021 99.3096 18.6141 100.862 18.3581L104.486 17.7821V17.4221C104.486 16.9261 104.286 16.5101 103.886 16.1741C103.486 15.8381 102.958 15.6701 102.302 15.6701C101.662 15.6701 101.094 15.8461 100.598 16.1981C100.118 16.5341 99.7656 16.9981 99.5416 17.5901L96.6616 16.2221C97.0456 15.1341 97.7576 14.2701 98.7976 13.6301C99.8536 12.9901 101.078 12.6701 102.47 12.6701C103.558 12.6701 104.526 12.8701 105.374 13.2701C106.238 13.6701 106.902 14.2301 107.366 14.9501C107.846 15.6701 108.086 16.4941 108.086 17.4221V26.0621H104.726V24.8381C104.214 25.3501 103.638 25.7341 102.998 25.9901C102.358 26.2301 101.622 26.3501 100.79 26.3501ZM99.9256 22.4381C99.9256 22.8381 100.07 23.1501 100.358 23.3741C100.662 23.5981 101.046 23.7101 101.51 23.7101C102.39 23.7101 103.102 23.4381 103.646 22.8941C104.206 22.3341 104.486 21.6461 104.486 20.8301V20.4221L101.51 20.9501C100.982 21.0461 100.582 21.2141 100.31 21.4541C100.054 21.6941 99.9256 22.0221 99.9256 22.4381Z" fill="#181945"/>
<path d="M110.246 7.89409H113.846V26.0621H110.246V7.89409Z" fill="#181945"/>
<path d="M116 12.9581H119.6V26.0621H116V12.9581ZM115.784 9.26209C115.784 8.60609 115.96 8.11009 116.312 7.77409C116.664 7.42209 117.16 7.24609 117.8 7.24609C118.456 7.24609 118.952 7.42209 119.288 7.77409C119.64 8.11009 119.816 8.60609 119.816 9.26209C119.816 9.91809 119.64 10.4221 119.288 10.7741C118.952 11.1101 118.456 11.2781 117.8 11.2781C117.16 11.2781 116.664 11.1021 116.312 10.7501C115.96 10.3981 115.784 9.90209 115.784 9.26209Z" fill="#181945"/>
<path d="M126.843 26.3261C125.467 26.3261 124.259 26.0141 123.219 25.3901C122.195 24.7501 121.483 23.8781 121.083 22.7741L123.675 21.4301C124.027 22.1021 124.483 22.6301 125.043 23.0141C125.603 23.3821 126.227 23.5661 126.915 23.5661C127.443 23.5661 127.851 23.4621 128.139 23.2541C128.427 23.0461 128.571 22.7581 128.571 22.3901C128.571 22.1021 128.459 21.8541 128.235 21.6461C128.011 21.4381 127.675 21.2941 127.227 21.2141L124.995 20.7821C123.907 20.5261 123.051 20.0461 122.427 19.3421C121.819 18.6221 121.515 17.7741 121.515 16.7981C121.515 15.9821 121.723 15.2621 122.139 14.6381C122.571 14.0141 123.171 13.5341 123.939 13.1981C124.723 12.8461 125.619 12.6701 126.627 12.6701C127.843 12.6701 128.915 12.9581 129.843 13.5341C130.771 14.0941 131.451 14.8861 131.883 15.9101L129.267 17.2541C129.059 16.7421 128.707 16.3341 128.211 16.0301C127.715 15.7101 127.163 15.5501 126.555 15.5501C126.059 15.5501 125.675 15.6461 125.403 15.8381C125.131 16.0301 124.995 16.2941 124.995 16.6301C124.995 16.9021 125.107 17.1421 125.331 17.3501C125.571 17.5421 125.947 17.7021 126.459 17.8301L128.547 18.2621C129.667 18.5661 130.531 19.0621 131.139 19.7501C131.747 20.4221 132.051 21.2381 132.051 22.1981C132.051 23.0141 131.835 23.7341 131.403 24.3581C130.971 24.9821 130.363 25.4701 129.579 25.8221C128.795 26.1581 127.883 26.3261 126.843 26.3261Z" fill="#181945"/>
<path d="M139.938 26.2061C138.354 26.2061 137.122 25.7821 136.242 24.9341C135.378 24.0701 134.946 22.8701 134.946 21.3341V16.0781H132.738V12.9581H132.858C133.53 12.9581 134.042 12.7901 134.394 12.4541C134.762 12.1181 134.946 11.6141 134.946 10.9421V9.98209H138.546V12.9581H141.618V16.0781H138.546V21.0941C138.546 21.7661 138.73 22.2701 139.098 22.6061C139.466 22.9261 140.026 23.0861 140.778 23.0861C141.002 23.0861 141.282 23.0621 141.618 23.0141V26.0861C141.09 26.1661 140.53 26.2061 139.938 26.2061Z" fill="#181945"/>
<path d="M146.848 26.0621C146.288 26.0621 145.816 25.8701 145.432 25.4861C145.048 25.1021 144.856 24.6301 144.856 24.0701C144.856 23.5101 145.048 23.0461 145.432 22.6781C145.816 22.2941 146.288 22.1021 146.848 22.1021C147.408 22.1021 147.872 22.2941 148.24 22.6781C148.624 23.0461 148.816 23.5101 148.816 24.0701C148.816 24.6461 148.632 25.1261 148.264 25.5101C147.896 25.8781 147.424 26.0621 146.848 26.0621Z" fill="#181945"/>
<g clip-path="url(#clip0_706_304)">
<path d="M24.4413 16.1224L23.2987 11.51C23.2145 11.173 22.9527 10.9094 22.6157 10.8261L20.2554 10.2356L22.6157 9.6451C22.9489 9.56178 23.2107 9.30266 23.2968 8.96941L23.6154 7.7316C23.6356 7.6556 23.6447 7.55766 23.6447 7.47891C23.6447 7.3086 23.599 7.1411 23.5092 6.9946C22.2367 4.88341 20.3251 3.6731 18.2633 3.6731C16.5073 3.6731 15.6247 4.2856 14.9161 4.77816C14.2972 5.20841 13.8065 5.5481 12.6383 5.5481C11.4701 5.5481 10.9794 5.20841 10.3605 4.77816C9.65187 4.2856 8.76931 3.6731 7.01331 3.6731C3.39512 3.6731 0.450806 7.45791 0.450806 12.1106C0.450806 21.6357 5.97512 30.9512 6.20949 31.3431C6.37793 31.625 6.68374 31.7981 7.01331 31.7981C9.65737 31.7981 10.2597 28.7814 10.745 26.3571C11.2064 24.0537 11.6111 22.4231 12.6383 22.4231C13.6656 22.4231 14.0702 24.0537 14.5316 26.3571C15.0169 28.7814 15.6192 31.7981 18.2633 31.7981C18.5929 31.7981 18.8969 31.625 19.0671 31.3431C19.2356 31.0611 23.2254 24.3457 24.4577 16.4932C24.4761 16.3697 24.4706 16.2433 24.4413 16.1224V16.1224Z" fill="url(#paint0_linear_706_304)"/>
<path d="M31.7404 9.32647L26.1607 7.96322L24.7984 2.50853C24.694 2.0911 24.3186 1.7981 23.8883 1.7981C23.458 1.7981 23.0826 2.0911 22.9782 2.50947L21.6196 7.96141L16.1612 9.32647C15.7438 9.42991 15.4508 9.80528 15.4508 10.2356C15.4508 10.6659 15.7438 11.0413 16.1612 11.1447L21.6141 12.508L22.9801 17.9691C23.0863 18.3838 23.4599 18.6731 23.8883 18.6731H23.892C24.3204 18.6713 24.694 18.3792 24.7984 17.9627L26.1607 12.508L31.7404 11.1447C32.1579 11.0413 32.4508 10.6659 32.4508 10.2356C32.4508 9.80528 32.1579 9.42991 31.7404 9.32647V9.32647Z" fill="#7B55EC"/>
</g>
<defs>
<linearGradient id="paint0_linear_706_304" x1="12.4596" y1="31.7981" x2="12.4596" y2="3.6731" gradientUnits="userSpaceOnUse">
<stop stop-color="#ADDCFF"/>
<stop offset="0.5028" stop-color="#EAF6FF"/>
<stop offset="1" stop-color="#EAF6FF"/>
</linearGradient>
<clipPath id="clip0_706_304">
<rect width="32" height="32" fill="white" transform="translate(0.450806 0.798096)"/>
</clipPath>
</defs>
</svg>
