<svg width="66" height="66" viewBox="0 0 66 66" fill="none" xmlns="http://www.w3.org/2000/svg">
<rect x="0.937622" y="1.36572" width="64" height="64" rx="16" fill="#583FBC" fill-opacity="0.2" stroke="url(#paint0_linear_759_323)"/>
<rect x="8.93762" y="9.36572" width="48" height="48" rx="16" fill="#583FBC"/>
<path d="M30.0724 42.1391V39.0813C30.0724 38.3008 30.7098 37.668 31.4961 37.668H34.3702C34.7478 37.668 35.1099 37.8169 35.3769 38.082C35.6439 38.347 35.7939 38.7065 35.7939 39.0813V42.1391C35.7915 42.4636 35.9197 42.7756 36.15 43.0059C36.3803 43.2362 36.6937 43.3657 37.0206 43.3657H38.9814C39.8973 43.3681 40.7764 43.0086 41.4248 42.3665C42.0732 41.7245 42.4376 40.8527 42.4376 39.9435V31.2326C42.4376 30.4982 42.1097 29.8016 41.5422 29.3304L34.8716 24.0416C33.7113 23.1143 32.0487 23.1442 30.923 24.1127L24.4046 29.3304C23.8104 29.7877 23.4552 30.4864 23.4376 31.2326V39.9347C23.4376 41.8296 24.985 43.3657 26.8938 43.3657H28.8099C29.4888 43.3657 30.0406 42.8219 30.0455 42.148L30.0724 42.1391Z" fill="white"/>
<defs>
<linearGradient id="paint0_linear_759_323" x1="0.937622" y1="1.36572" x2="64.9376" y2="65.3657" gradientUnits="userSpaceOnUse">
<stop stop-color="#583FBC"/>
<stop offset="1" stop-color="#583FBC" stop-opacity="0"/>
</linearGradient>
</defs>
</svg>
