<svg width="98" height="98" viewBox="0 0 98 98" fill="none" xmlns="http://www.w3.org/2000/svg">
<rect x="1.00012" y="1" width="96" height="96" rx="16" fill="white" fill-opacity="0.2" stroke="url(#paint0_linear_401_216)"/>
<rect x="13.0001" y="13" width="72" height="72" rx="16" fill="white"/>
<g clip-path="url(#clip0_401_216)">
<path d="M63.6007 46.1243C63.0377 47.8152 62.7948 49.627 62.8956 51.4292C63.1749 56.5132 63.0648 60.3821 58.3168 63.5667C57.8514 63.8784 57.3099 64.0432 56.7501 64.0432H52.6876C51.1368 64.0432 49.8751 62.7815 49.8751 61.2307V55.6641C49.8751 55.134 49.4652 54.6609 48.9135 54.6667C48.42 54.6765 48.0001 55.105 48.0001 55.6021V61.2307C48.0001 62.7815 46.7384 64.0432 45.1876 64.0432H41.4376C40.9017 64.0432 40.3795 63.8911 39.9274 63.6033C34.9735 60.4497 34.6478 56.5786 34.9884 51.2854C35.0968 49.605 34.8715 47.8616 34.3353 46.1758C33.5197 46.8643 33.0001 47.8933 33.0001 49.0417V64.0432C33.0001 64.561 33.4198 64.9807 33.9376 64.9807H64.0626C64.5804 64.9807 65.0001 64.561 65.0001 64.0432V49.0432C65.0001 47.865 64.4532 46.8123 63.6007 46.1243Z" fill="#583FBC"/>
<path d="M36.8596 51.4057C36.5386 56.395 36.8188 59.4016 40.9343 62.0217C41.2173 62.2016 41.4014 62.1682 42.1018 62.1682C41.563 59.8935 40.5002 55.0088 40.5002 51.8557C40.5002 50.3369 40.9289 48.8296 41.7212 47.5195C41.7493 46.8982 41.7634 44.6596 40.6577 43.001C40.3706 42.57 40.4868 41.988 40.9177 41.7009C41.3484 41.4135 41.9307 41.53 42.2178 41.9609C42.7314 42.7312 43.0588 43.5749 43.2656 44.3772C43.7981 43.0901 44.2502 41.6721 44.2502 40.6057C44.2502 40.0881 44.6699 39.6682 45.1877 39.6682C45.7056 39.6682 46.1252 40.0881 46.1252 40.6057C46.1252 41.7226 45.7773 43.0285 45.3325 44.2422C45.8118 44.0114 46.3118 43.8247 46.8262 43.6897C47.3269 43.5588 47.8396 43.8581 47.9707 44.3589C48.102 44.8598 47.8025 45.3723 47.3018 45.5034C44.447 46.2519 42.3752 48.9233 42.3752 51.8557C42.3752 54.9961 43.5605 60.2185 44.031 62.1682H45.1877C45.7056 62.1682 46.1252 61.7485 46.1252 61.2307V55.602C46.1252 54.083 47.3608 52.8225 48.8796 52.792C50.4646 52.7634 51.7502 54.072 51.7502 55.664V61.2307C51.7502 61.7485 52.1699 62.1682 52.6877 62.1682H53.8445C54.3149 60.218 55.5002 54.9936 55.5002 51.8557C55.5002 49.0219 53.6934 46.521 51.0137 45.6281C50.5225 45.4643 50.2568 44.9336 50.4206 44.4421C50.5842 43.9511 51.1152 43.6853 51.6064 43.8491C51.8484 43.9299 52.0842 44.0217 52.3147 44.122C52.019 42.6557 52.4038 41.6438 52.8611 41.0002C53.1609 40.5781 53.7463 40.4792 54.1685 40.779C54.5903 41.0788 54.6894 41.664 54.3896 42.0862C53.8848 42.7966 54.0752 43.8237 54.4871 44.7873C54.7483 44.2575 55.1025 43.6865 55.581 43.1426C55.9231 42.7539 56.5154 42.7158 56.9043 43.0578C57.293 43.3999 57.3308 43.9922 56.9888 44.3811C56.1938 45.2849 55.8523 46.3049 55.7195 46.8315C56.8252 48.3257 57.3752 50.0888 57.3752 51.8557C57.3752 55.0088 56.3125 59.8935 55.7737 62.1682C56.7744 62.1682 56.968 62.2136 57.2725 62.0093C59.1279 60.7649 60.1855 59.4219 60.7017 57.6543C61.9001 53.5486 59.8308 49.989 62.3027 44.27C65.5146 36.8325 57.8975 30.2097 51.1506 34.2011C49.8049 34.9966 48.1331 34.9968 46.7876 34.2014C40.0803 30.2334 32.4778 36.7561 35.6001 44.1863C36.5784 46.5173 37.0139 49.0136 36.8596 51.4057Z" fill="#583FBC"/>
</g>
<defs>
<linearGradient id="paint0_linear_401_216" x1="1.00012" y1="1" x2="97.0001" y2="97" gradientUnits="userSpaceOnUse">
<stop stop-color="white"/>
<stop offset="1" stop-color="white" stop-opacity="0"/>
</linearGradient>
<clipPath id="clip0_401_216">
<rect width="32" height="32" fill="white" transform="translate(33.0001 33)"/>
</clipPath>
</defs>
</svg>
