<svg width="98" height="98" viewBox="0 0 98 98" fill="none" xmlns="http://www.w3.org/2000/svg">
<rect x="1.00003" y="1" width="96" height="96" rx="16" fill="white" fill-opacity="0.2" stroke="url(#paint0_linear_401_175)"/>
<rect x="13" y="13" width="72" height="72" rx="16" fill="white"/>
<path d="M54.3509 60.7712C51.1861 64.0381 46.8267 64.0269 43.6712 60.7456C40.4414 64.4336 35.7932 63.9067 33 59.718V61.5625C33 63.458 34.542 65 36.4375 65H61.562C63.4576 65 64.9993 63.458 64.9993 61.5625V59.718C62.1824 63.9436 57.5479 64.3928 54.3509 60.7712V60.7712Z" fill="#583FBC"/>
<path d="M38.7296 61.3381C40.2022 61.3381 41.494 60.4736 42.4759 59.2524C40.7022 56.5977 39.9 52.8132 41.9678 50.3806C40.9327 50.0276 39.7183 49.9756 38.7296 49.9756C37.5523 49.9756 36.0552 50.0488 34.921 50.6174C33.4383 51.3611 32.8841 52.7803 33.0198 54.4331C33.251 57.3757 35.5772 61.3381 38.7296 61.3381V61.3381Z" fill="#583FBC"/>
<path d="M63.0791 50.6174C61.9446 50.0488 60.4478 49.9756 59.2703 49.9756C58.2935 49.9756 57.096 50.0264 56.0691 50.3682C58.1514 52.8005 57.3533 56.6064 55.5498 59.2844C56.5291 60.4888 57.8111 61.3381 59.2703 61.3381C62.5943 61.3381 64.9995 56.9326 64.9995 53.9624C64.9995 51.9937 63.9554 51.0569 63.0791 50.6174V50.6174Z" fill="#583FBC"/>
<path d="M42.6153 53.9626C42.6153 57.0583 45.4185 61.3381 49.024 61.3381C52.6289 61.3381 55.4326 57.0588 55.4326 53.9626C55.4326 49.9756 50.9417 49.9756 49.024 49.9756C47.1062 49.9756 42.6153 49.9756 42.6153 53.9626V53.9626Z" fill="#583FBC"/>
<path d="M61.5623 33H36.4378C34.5423 33 33.0005 34.542 33.0005 36.4375V38.282C35.8282 34.0398 40.4646 33.6213 43.649 37.2288C46.8138 33.9619 51.1731 33.9731 54.3286 37.2544C57.4803 33.6558 62.1404 33.991 64.9995 38.282V36.4375C64.9995 34.542 63.4578 33 61.5623 33V33Z" fill="#583FBC"/>
<path d="M38.7293 36.6619C35.4053 36.6619 33 41.0674 33 44.0376C33 46.0063 34.0445 46.9431 34.9207 47.3826C36.055 47.9512 37.5518 48.0244 38.7293 48.0244C39.7068 48.0244 40.9036 47.9736 41.9305 47.6318C39.8484 45.1995 40.6465 41.3936 42.45 38.7156C41.4705 37.5112 40.1888 36.6619 38.7293 36.6619Z" fill="#583FBC"/>
<path d="M59.2703 36.6619C57.7979 36.6619 56.5061 37.5264 55.5235 38.7476C57.2981 41.4036 58.1001 45.1868 56.0323 47.6194C57.0674 47.9724 58.2815 48.0244 59.2703 48.0244C60.4478 48.0244 61.9446 47.9512 63.0791 47.3826C64.5618 46.6389 65.1158 45.22 64.9803 43.5669C64.7491 40.6243 62.4229 36.6619 59.2703 36.6619V36.6619Z" fill="#583FBC"/>
<path d="M48.9761 36.6619C45.3882 36.6619 42.5674 40.9226 42.5674 44.0374C42.5674 48.0244 47.0586 48.0244 48.9761 48.0244C50.8938 48.0244 55.3848 48.0244 55.3848 44.0374C55.385 40.9211 52.5633 36.6619 48.9761 36.6619Z" fill="#583FBC"/>
<defs>
<linearGradient id="paint0_linear_401_175" x1="1.00003" y1="1" x2="97" y2="97" gradientUnits="userSpaceOnUse">
<stop stop-color="white"/>
<stop offset="1" stop-color="white" stop-opacity="0"/>
</linearGradient>
</defs>
</svg>
