<svg width="98" height="98" viewBox="0 0 98 98" fill="none" xmlns="http://www.w3.org/2000/svg">
<rect x="1" y="1" width="96" height="96" rx="16" fill="white" fill-opacity="0.2" stroke="url(#paint0_linear_401_205)"/>
<rect x="13" y="13" width="72" height="72" rx="16" fill="white"/>
<g clip-path="url(#clip0_401_205)">
<path d="M61.2906 64.8532C62.5289 63.3337 62.4147 60.3308 62.4135 60.2993C62.4129 59.1782 62.0952 57.8565 61.8294 56.9399C61.5317 55.9141 61.7254 54.8187 62.362 53.9341C62.4255 53.8462 62.4871 53.7558 62.546 53.6667C63.4003 52.3775 63.8512 50.8318 63.8512 49.1947V48.3003C63.8512 45.7431 60.2625 45.7025 60.1088 45.702C58.918 45.7026 57.7065 46.0637 56.7556 46.7917C56.6459 46.8757 56.539 46.9649 56.4168 47.03C56.3608 47.0597 56.3013 47.0849 56.2482 47.1197C56.0277 47.2637 55.8453 47.5214 55.6488 47.7003C55.4076 47.9191 55.1533 48.1254 54.8842 48.3094C54.3328 48.686 53.687 49.0015 53.0053 49.0015C52.6899 49.0015 52.4339 48.7461 52.4339 48.43C52.4339 48.114 52.6899 47.8586 53.0053 47.8586C53.7379 47.8586 54.6625 47.0826 55.1996 46.5403C54.9682 46.3968 54.6699 46.2363 54.3053 46.094C53.2195 45.6705 52.0092 45.6002 50.8766 45.8688C49.9652 46.0848 48.9863 46.5294 48.6154 47.4551C48.5171 47.7008 48.4606 47.9808 48.4606 48.3008V49.1956C48.4606 50.343 48.6857 51.4917 49.1503 52.5425C49.4543 53.2294 49.9326 53.8197 50.2583 54.4951C50.6275 55.2591 50.7195 56.1214 50.4818 56.9409C50.2155 57.8575 49.8984 59.1792 49.8984 60.2753C49.8966 60.3307 49.7829 63.3347 51.0207 64.8542C51.6087 62.8742 53.4344 57.5906 56.1556 57.5906C58.8769 57.5906 60.7026 62.8731 61.2906 64.8532Z" fill="#583FBC"/>
<path d="M47.8478 52.3472C47.4376 51.1746 47.2758 49.8928 47.2982 48.6551C47.3095 48.0174 47.3781 47.3654 47.6559 46.7917C48.1039 45.8671 49.0405 45.2653 50.0125 44.9317C52.0366 44.2374 54.416 44.5339 56.1561 45.8025C56.2458 45.7368 56.3543 45.6642 56.4732 45.5894C56.491 45.578 56.5115 45.5665 56.5304 45.5551C56.9658 45.2871 57.4321 45.0762 57.9161 44.9139C57.9572 44.9002 57.9915 44.8842 58.0337 44.8711C58.8578 43.0808 59.2921 41.0653 59.2921 39.0236V37.5715C59.2921 33.064 53.2623 33.0005 53.0057 33C49.4296 33 47.2918 34.9595 47.1382 35.1051C46.7587 35.5566 44.021 38.7144 41.5774 38.7144C41.262 38.7144 41.006 38.459 41.006 38.1429C41.006 37.8269 41.262 37.5715 41.5774 37.5715C43.0095 37.5715 44.9295 35.8246 45.9032 34.7749C45.1095 34.1754 43.2009 33 40.4346 33C40.1786 33.0006 34.1487 33.064 34.1487 37.5715V39.0235C34.1487 41.7515 34.8864 44.3304 36.2814 46.4796C36.378 46.6287 36.4785 46.7773 36.5831 46.9259C37.53 48.2699 37.8191 49.9328 37.3768 51.4871C36.9471 52.9974 36.4345 55.1797 36.4345 56.9998C36.4317 57.0792 36.2277 62.4998 38.5637 64.9645C38.5941 64.9959 38.6323 65.0068 38.6775 64.9959C38.7055 64.9884 38.7547 64.9679 38.7718 64.9061C39.5558 62.113 42.4456 52.9996 46.7205 52.9996C47.2525 52.9996 47.781 53.1402 48.3039 53.4203C48.2891 53.3905 48.2787 53.358 48.2645 53.3283C48.1262 53.0477 48 52.7609 47.8914 52.4654C47.8759 52.4267 47.8615 52.3872 47.8478 52.3472Z" fill="#583FBC"/>
</g>
<defs>
<linearGradient id="paint0_linear_401_205" x1="1" y1="1" x2="97" y2="97" gradientUnits="userSpaceOnUse">
<stop stop-color="white"/>
<stop offset="1" stop-color="white" stop-opacity="0"/>
</linearGradient>
<clipPath id="clip0_401_205">
<rect width="32" height="32" fill="white" transform="translate(33 33)"/>
</clipPath>
</defs>
</svg>
