<svg width="98" height="98" viewBox="0 0 98 98" fill="none" xmlns="http://www.w3.org/2000/svg">
<rect x="1" y="1" width="96" height="96" rx="16" fill="white" fill-opacity="0.2" stroke="url(#paint0_linear_401_962)"/>
<rect x="13" y="13" width="72" height="72" rx="16" fill="white"/>
<g clip-path="url(#clip0_401_962)">
<path d="M52.4372 51.6667C51.3185 51.6667 50.3518 50.9147 50.1372 49.8774L49.3892 45.6347C49.3718 45.552 49.2145 45.4307 48.9998 45.4307C48.7852 45.4307 48.6278 45.552 48.6038 45.6654L47.8665 49.8494C47.6478 50.9147 46.6812 51.6667 45.5625 51.6667C44.3678 51.6667 43.3665 50.82 43.2332 49.6987L42.9452 47.2627C42.9278 47.1374 42.7972 46.4427 42.1052 43.2454C41.8145 41.9014 41.6665 40.5214 41.6665 39.1427C41.6665 37.2267 43.2212 35.6667 45.1318 35.6667C45.7705 35.6667 46.3998 35.8414 46.9492 36.172C48.2145 36.9347 49.7852 36.9347 51.0478 36.1734C51.5998 35.8414 52.2292 35.6667 52.8678 35.6667C54.7785 35.6667 56.3332 37.2267 56.3332 39.1427C56.3332 40.5214 56.1852 41.9014 55.8945 43.2467C55.2025 46.4414 55.0718 47.136 55.0532 47.2667L54.7665 49.6987C54.6345 50.82 53.6332 51.6667 52.4372 51.6667Z" fill="#583FBC"/>
<path d="M61.3333 62.3333H36.6667C34.644 62.3333 33 60.6893 33 58.6667V47.3333C33 46.0467 34.0467 45 35.3333 45H36.692C38.44 45 39.9533 46.248 40.292 47.968C40.74 50.2373 40.992 51.8427 40.992 51.8427C41.2493 54.0387 43.136 55.6667 45.3813 55.6667C46.468 55.6667 47.5147 55.2707 48.3267 54.552C48.7027 54.2187 49.2707 54.2173 49.6493 54.5507C50.4693 55.2707 51.5227 55.6667 52.6187 55.6667C54.8653 55.6667 56.7507 54.0413 57.0027 51.8853C57.008 51.8507 57.2507 50.2747 57.7067 47.968C58.0467 46.248 59.56 45 61.3053 45H62.6667C63.9533 45 65 46.0467 65 47.3333V58.6667C65 60.6893 63.356 62.3333 61.3333 62.3333Z" fill="#583FBC"/>
</g>
<defs>
<linearGradient id="paint0_linear_401_962" x1="1" y1="1" x2="97" y2="97" gradientUnits="userSpaceOnUse">
<stop stop-color="white"/>
<stop offset="1" stop-color="white" stop-opacity="0"/>
</linearGradient>
<clipPath id="clip0_401_962">
<rect width="32" height="32" fill="white" transform="translate(33 33)"/>
</clipPath>
</defs>
</svg>
