<svg width="98" height="98" viewBox="0 0 98 98" fill="none" xmlns="http://www.w3.org/2000/svg">
<rect x="1" y="1" width="96" height="96" rx="16" fill="white" fill-opacity="0.2" stroke="url(#paint0_linear_401_937)"/>
<rect x="13" y="13" width="72" height="72" rx="16" fill="white"/>
<path d="M60.5917 36.4484C60.5361 34.9009 59.4315 33.6041 57.9055 33.2948C53.641 32.4305 50.1944 33.6901 49.001 34.2206C47.8076 33.6901 44.3613 32.4305 40.0965 33.2948C38.5705 33.6041 37.4659 34.9009 37.4103 36.4484C37.3169 39.0479 37.6613 43.6974 40.8837 46.4479C40.661 47.7909 40.1427 51.3535 40.1427 55.4215C40.1427 58.7175 40.7267 61.417 41.2166 63.1012C41.5418 64.2191 42.5817 64.9999 43.7454 64.9999C45.1647 64.9999 46.3205 63.8886 46.3767 62.4699C46.6796 54.8166 48.1122 52.0385 49.001 52.0385C49.89 52.0385 51.3225 54.8166 51.6254 62.4699C51.6816 63.8886 52.8374 64.9999 54.2567 64.9999C55.4205 64.9999 56.4604 64.2191 56.7856 63.1012C57.2754 61.417 57.8594 58.7175 57.8594 55.4216C57.8594 51.3536 57.3411 47.7909 57.1184 46.448C60.3408 43.6976 60.6852 39.0479 60.5917 36.4484ZM51.3507 46.3379L50.0249 47.6636L49.001 46.6397L47.977 47.6636L46.6513 46.3379L48.0635 44.9256V43.8773H47.0152L45.6029 45.2895L44.2772 43.9638L45.3011 42.9398L44.2772 41.9159L45.6029 40.5901L47.0152 42.0024H48.0635V40.954L46.6513 39.5418L47.977 38.216L49.001 39.24L50.0249 38.216L51.3507 39.5418L49.9384 40.954V42.0024H50.9868L52.399 40.5901L53.7248 41.9159L52.7008 42.9398L53.7248 43.9638L52.399 45.2895L50.9868 43.8773H49.9384V44.9256L51.3507 46.3379Z" fill="#583FBC"/>
<path d="M34.3345 50.7771H37.001V52.652H34.3345V50.7771Z" fill="#583FBC"/>
<path d="M35.6226 47.6627L36.9481 46.3371L38.3284 47.7173L37.0028 49.0429L35.6226 47.6627Z" fill="#583FBC"/>
<path d="M35.6216 55.7634L37.0018 54.3832L38.3274 55.7088L36.9472 57.089L35.6216 55.7634Z" fill="#583FBC"/>
<path d="M61 50.7771H63.6666V52.652H61V50.7771Z" fill="#583FBC"/>
<path d="M59.6665 47.7201L61.0467 46.3399L62.3723 47.6655L60.9921 49.0457L59.6665 47.7201Z" fill="#583FBC"/>
<path d="M59.666 55.7116L60.9916 54.3861L62.3718 55.7663L61.0462 57.0918L59.666 55.7116Z" fill="#583FBC"/>
<defs>
<linearGradient id="paint0_linear_401_937" x1="1" y1="1" x2="97" y2="97" gradientUnits="userSpaceOnUse">
<stop stop-color="white"/>
<stop offset="1" stop-color="white" stop-opacity="0"/>
</linearGradient>
</defs>
</svg>
