<svg width="98" height="98" viewBox="0 0 98 98" fill="none" xmlns="http://www.w3.org/2000/svg">
<rect x="1" y="1" width="96" height="96" rx="16" fill="white" fill-opacity="0.2" stroke="url(#paint0_linear_401_952)"/>
<rect x="13" y="13" width="72" height="72" rx="16" fill="white"/>
<g clip-path="url(#clip0_401_952)">
<path d="M63.0379 38.6488C62.16 36.1004 60.3674 34.2254 58.1196 33.5045C53.8513 32.1359 50.3413 33.8946 48.9996 34.7378C47.658 33.8945 44.1478 32.1358 39.8796 33.5045C37.6308 34.2257 35.8377 36.1018 34.9602 38.6518C33.8063 42.005 34.3873 45.8727 36.5146 48.9979C37.9353 51.0851 38.8629 53.4406 39.1973 55.8097C39.2166 55.9464 39.2355 56.086 39.2539 56.2288C39.576 58.7272 40.0503 60.7325 40.6638 62.1889C41.3989 63.9342 42.3474 64.8767 43.4831 64.9904C44.6868 65.1106 45.686 64.1096 46.4538 62.0149C46.9906 60.5502 47.4139 58.5874 47.6456 56.4882C47.7751 55.3147 48.0778 54.3646 48.5212 53.7407C48.6793 53.5182 48.9084 53.4942 48.9996 53.4942C49.0908 53.4942 49.3199 53.5182 49.4781 53.7407C49.9214 54.3646 50.2241 55.3147 50.3536 56.4882C50.5852 58.5874 51.0086 60.5502 51.5454 62.0149C52.272 63.9973 53.2059 65 54.3241 65C54.3874 65 54.4516 64.9968 54.5161 64.9904C55.6518 64.8767 56.6003 63.9342 57.3354 62.1889C57.9489 60.7325 58.4232 58.7272 58.7453 56.2287C58.763 56.0912 58.7812 55.9567 58.7997 55.8247C59.1336 53.4516 60.0636 51.0886 61.4892 48.9912C63.6133 45.8661 64.1922 41.9998 63.0379 38.6488Z" fill="#583FBC"/>
</g>
<defs>
<linearGradient id="paint0_linear_401_952" x1="1" y1="1" x2="97" y2="97" gradientUnits="userSpaceOnUse">
<stop stop-color="white"/>
<stop offset="1" stop-color="white" stop-opacity="0"/>
</linearGradient>
<clipPath id="clip0_401_952">
<rect width="32" height="32" fill="white" transform="translate(33 33)"/>
</clipPath>
</defs>
</svg>
