<svg width="98" height="98" viewBox="0 0 98 98" fill="none" xmlns="http://www.w3.org/2000/svg">
<rect x="1" y="1" width="96" height="96" rx="16" fill="white" fill-opacity="0.2" stroke="url(#paint0_linear_401_928)"/>
<rect x="13" y="13" width="72" height="72" rx="16" fill="white"/>
<path d="M61.6703 51.9198C61.1487 54.1812 60.0312 56.2617 58.4339 57.9454C56.8366 59.6291 54.8178 60.8545 52.5869 61.4944C50.3561 62.1343 47.9946 62.1654 45.7477 61.5844C43.5008 61.0034 41.4504 59.8316 39.8093 58.1906C38.1683 56.5495 36.9964 54.4991 36.4154 52.2522C35.8344 50.0053 35.8655 47.6438 36.5054 45.413C37.1453 43.1822 38.3707 41.1633 40.0543 39.566C41.738 37.9687 43.8185 36.8512 46.08 36.3295C46.2451 36.2916 46.4171 36.2962 46.5799 36.343C46.7427 36.3898 46.8909 36.4772 47.0107 36.5969C47.1305 36.7167 47.2179 36.865 47.2647 37.0278C47.3116 37.1905 47.3163 37.3626 47.2784 37.5277C46.8614 39.3455 46.913 41.2394 47.4284 43.0318C47.9437 44.8242 48.9059 46.4563 50.2246 47.7751C51.5434 49.0938 53.1755 50.056 54.9679 50.5713C56.7603 51.0867 58.6542 51.1383 60.472 50.7213C60.6371 50.6835 60.8091 50.6881 60.9719 50.7349C61.1348 50.7818 61.283 50.8692 61.4028 50.9889C61.5226 51.1087 61.61 51.257 61.6568 51.4198C61.7036 51.5826 61.7082 51.7547 61.6703 51.9198Z" fill="#583FBC"/>
<defs>
<linearGradient id="paint0_linear_401_928" x1="1" y1="1" x2="97" y2="97" gradientUnits="userSpaceOnUse">
<stop stop-color="white"/>
<stop offset="1" stop-color="white" stop-opacity="0"/>
</linearGradient>
</defs>
</svg>
