<svg width="98" height="98" viewBox="0 0 98 98" fill="none" xmlns="http://www.w3.org/2000/svg">
<rect x="1" y="1" width="96" height="96" rx="16" fill="white" fill-opacity="0.2" stroke="url(#paint0_linear_401_913)"/>
<rect x="13" y="13" width="72" height="72" rx="16" fill="white"/>
<g clip-path="url(#clip0_401_913)">
<path d="M60.5912 36.4485C60.5356 34.901 59.431 33.6041 57.9049 33.2948C55.1599 32.7384 52.7552 33.0623 51.0709 33.505L48.1378 39.8054H52.8506L48.839 47.8285L47.162 46.99L49.8169 41.6803H45.1968L48.7246 34.1027C47.3324 33.528 44.0699 32.4894 40.096 33.2948C38.5701 33.6041 37.4654 34.9009 37.4098 36.4485C37.3164 39.048 37.6609 43.6976 40.8832 46.4481C40.6605 47.791 40.1422 51.3537 40.1422 55.4216C40.1422 58.7176 40.7262 61.4171 41.2161 63.1012C41.5412 64.2191 42.5811 65 43.7449 65C45.1642 65 46.32 63.8887 46.3762 62.47C46.6791 54.8166 48.1116 52.0386 49.0005 52.0386C49.8895 52.0386 51.322 54.8166 51.6249 62.47C51.681 63.8887 52.8368 65 54.2562 65C55.4199 65 56.4598 64.2191 56.785 63.1012C57.2749 61.4171 57.8588 58.7176 57.8588 55.4216C57.8588 51.3537 57.3405 47.7909 57.1179 46.4481C60.3402 43.6976 60.6846 39.048 60.5912 36.4485Z" fill="#583FBC"/>
<path d="M34.334 50.7772H37.0005V52.6521H34.334V50.7772Z" fill="#583FBC"/>
<path d="M35.6221 47.6625L36.9476 46.337L38.3278 47.7171L37.0023 49.0427L35.6221 47.6625Z" fill="#583FBC"/>
<path d="M35.6211 55.7635L37.0013 54.3834L38.3268 55.7089L36.9467 57.0891L35.6211 55.7635Z" fill="#583FBC"/>
<path d="M60.9995 50.7772H63.666V52.6521H60.9995V50.7772Z" fill="#583FBC"/>
<path d="M59.6655 47.7197L61.0457 46.3395L62.3712 47.6651L60.9911 49.0452L59.6655 47.7197Z" fill="#583FBC"/>
<path d="M59.665 55.7115L60.9906 54.3859L62.3708 55.7661L61.0452 57.0917L59.665 55.7115Z" fill="#583FBC"/>
</g>
<defs>
<linearGradient id="paint0_linear_401_913" x1="1" y1="1" x2="97" y2="97" gradientUnits="userSpaceOnUse">
<stop stop-color="white"/>
<stop offset="1" stop-color="white" stop-opacity="0"/>
</linearGradient>
<clipPath id="clip0_401_913">
<rect width="32" height="32" fill="white" transform="translate(33 33)"/>
</clipPath>
</defs>
</svg>
